<?xml version="1.0" encoding="utf-8"?>
<!-- Generator: Adobe Illustrator 19.1.0, SVG Export Plug-In . SVG Version: 6.00 Build 0)  -->
<svg version="1.1" id="Camada_1" xmlns="http://www.w3.org/2000/svg" xmlns:xlink="http://www.w3.org/1999/xlink" x="0px" y="0px"
	 viewBox="0 0 396 94" style="enable-background:new 0 0 396 94;" xml:space="preserve">
<style type="text/css">
	.st0{fill:#4680FF;}
</style>
<g>
	<g>
		<path class="st0" d="M52.9,74.9c-2.6,3.5-5.7,6.2-9.4,8.1c-3.7,1.9-7.8,2.8-12.1,2.8c-2.3,0-4.4-0.2-6.3-0.7
			c-1.9-0.5-4.1-1.4-6.5-2.7c-1.1-1-1.5-1.7-1.2-2.2c0.3-0.5,0.4-0.8,0.3-1l-0.1,4.5c-0.7,3.5-2.8,5.1-6.5,4.8
			c-3.6-0.3-5.5-1.9-5.7-4.8V11.2c0.8-4,2.9-5.9,6.4-5.7c3.5,0.2,5.4,2.1,5.8,5.7V41c6-2.4,11-3.5,15.2-3.5c6.3,0,11.3,1.6,14.9,4.7
			c3.6,3.2,6,6.3,7.2,9.3c1.2,3.1,1.8,6.2,1.8,9.6C56.6,65.8,55.3,70.4,52.9,74.9z M41.8,68.8c1-1.8,1.6-4,1.6-6.6
			c0-3.6-1.1-6.8-3.2-9.4c-2.2-2.7-5.1-4-8.7-4c-5.1,0.1-8.6,1.4-10.7,3.9c-2.1,2.5-3.1,5.6-3.1,9.2c0,3.1,0.8,5.8,2.5,8.2
			c1.7,2.4,3.6,3.9,5.8,4.5c2.2,0.6,3.8,0.9,4.7,0.9c2.4,0,4.4-0.6,6.2-1.8C38.5,72.5,40.2,70.9,41.8,68.8z"/>
		<path class="st0" d="M58.7,22.9c0-2.4,0.6-4.6,1.8-6.6c1.2-2,3-3,5.3-3c2.2,0,3.9,1,5.3,2.9c1.4,1.9,2.1,4.2,2.1,6.7
			c0,2.6-0.7,4.9-2.1,6.8c-1.4,1.9-3.2,2.9-5.3,2.9c-2.2,0-4-1-5.2-2.9C59.3,27.9,58.7,25.6,58.7,22.9z M72.5,84.3
			c-0.6,3.2-2.8,4.7-6.6,4.5c-3.9-0.2-6-1.8-6.3-4.7V41.4c0.7-3.6,2.8-5.4,6.4-5.3c3.5,0.1,5.7,1.7,6.6,4.9V84.3z"/>
		<path class="st0" d="M119.6,82.1c-3.1,2.3-5.8,3.6-8.3,4c-2.5,0.4-6.1,0.6-10.7,0.6c-5.2,0-9.8-1.2-13.9-3.5
			c-4.1-2.3-7.2-6.1-9.3-11.2c-1.4-4.4-2.1-8.6-2.1-12.6c0-4,0.6-7.7,1.9-11.4c1.2-3.6,3.2-6.7,6-9.3c2.7-2.6,5.8-4.4,9.3-5.4
			s7-1.6,10.8-1.6c4.4,0,9.4,1.6,14.8,4.7c4.2,2.9,5.3,6,3.3,9.3c-1.9,3.3-4.7,3.9-8.3,1.7c-3.4-1.5-5.5-2.4-6.4-2.6
			c-0.8-0.2-2.2-0.3-4.2-0.3c-2.2,0-4.2,0.3-6,1c-1.8,0.7-3.3,1.7-4.5,3c-2.8,3.5-4.2,7.3-4.2,11.2c0,3.1,0.6,5.7,1.7,7.8
			c1.1,2,2.5,3.5,4.3,4.4c2.6,1.9,5.5,2.8,8.4,2.8c2.1,0,4.2-0.4,6.2-1.2c2.2-0.9,4-1.7,5.5-2.4c3.8-1.8,6.6-1.2,8.2,1.8
			S123,79.1,119.6,82.1z"/>
		<path class="st0" d="M169.3,84.1c-0.8,3.1-3,4.7-6.4,4.8c-3.4,0.1-5.5-1.5-6.4-4.8V57.2c-0.4-2.5-1.3-4.5-2.6-6.1
			c-1.3-1.6-3.2-2.3-5.7-2.2c-3.1,0.5-5.3,1.5-6.6,3.1c-1.4,1.6-2.2,3.5-2.6,5.9v26.2c-0.8,3.2-3,4.7-6.5,4.6
			c-3.5-0.1-5.5-1.7-5.9-4.6V11.3c0.3-4,2.4-6,6.1-6.1c3.7-0.1,5.8,1.9,6.1,6.1v31.5c0-0.8,1.2-1.8,3.5-3c2.4-1.2,5.1-1.8,8.3-1.8
			c5.2,0,10,1.8,14.4,5.5c2.7,3.5,4.1,7.7,4.1,12.4V84.1z"/>
		<path class="st0" d="M171.5,22.9c0-2.4,0.6-4.6,1.8-6.6c1.2-2,3-3,5.3-3c2.2,0,3.9,1,5.3,2.9c1.4,1.9,2.1,4.2,2.1,6.7
			c0,2.6-0.7,4.9-2.1,6.8c-1.4,1.9-3.2,2.9-5.3,2.9c-2.2,0-4-1-5.2-2.9C172.1,27.9,171.5,25.6,171.5,22.9z M185.3,84.3
			c-0.6,3.2-2.8,4.7-6.6,4.5c-3.9-0.2-6-1.8-6.3-4.7V41.4c0.7-3.6,2.8-5.4,6.4-5.3c3.5,0.1,5.7,1.7,6.6,4.9V84.3z"/>
		<path class="st0" d="M239.4,83.1c-0.8,3.4-3.3,5-7.4,4.9c-4.1-0.1-6.3-1.8-6.5-5V50.4c-0.9-1.6-2.4-3-4.5-4.2
			c-2.1-1.2-4.4-1.8-6.9-1.8c-1.5,0-3,0.2-4.4,0.6c-1.9,0.8-3.7,1.9-5.3,3.1c-1.6,1.2-2.7,2.5-3.4,3.7v31.1c-1.5,4-3.9,5.7-7.2,5.3
			c-3.3-0.4-5.2-2.2-5.6-5.3V35.2c0.3-4.7,2.6-7,6.8-7.1c4.2-0.1,6.1,2.3,5.8,7.1V39c-1.1,0.9,0.2,0.1,4.1-2.5
			c3.8-2.6,8.1-3.9,12.7-3.9c6,0,11,1.6,14.9,4.7c3.9,3.2,6.3,7.4,7,12.9V83.1z"/>
		<path class="st0" d="M284.1,84.1c-0.8,3.1-3,4.7-6.4,4.8c-3.4,0.1-5.5-1.5-6.4-4.8V57.2c-0.4-2.5-1.3-4.5-2.6-6.1
			c-1.3-1.6-3.2-2.3-5.7-2.2c-3.1,0.5-5.3,1.5-6.6,3.1c-1.4,1.6-2.2,3.5-2.6,5.9v26.2c-0.8,3.2-3,4.7-6.5,4.6
			c-3.5-0.1-5.5-1.7-5.9-4.6V11.3c0.3-4,2.4-6,6.1-6.1c3.7-0.1,5.8,1.9,6.1,6.1v31.5c0-0.8,1.2-1.8,3.5-3c2.4-1.2,5.1-1.8,8.3-1.8
			c5.2,0,10,1.8,14.4,5.5c2.7,3.5,4.1,7.7,4.1,12.4V84.1z"/>
		<path class="st0" d="M340.2,60.4c0,8-2.7,14.5-8.1,19.4c-5.4,5-11.7,7.4-19,7.4c-7.4,0-13.8-2.5-19-7.4c-5.2-5-7.9-11.5-7.9-19.5
			c0-7.5,2.6-14.1,7.7-19.9c5.1-5.8,11.3-8.6,18.6-8.6c7.5,0,14,2.8,19.5,8.5C337.4,46,340.2,52.7,340.2,60.4z M326.8,60.4
			c0-4.1-1.3-7.5-3.9-10.2c-2.6-2.7-5.7-4.1-9.4-4.1c-3.9,0-7.2,1.3-9.9,4c-2.7,2.7-4.1,6-4.1,9.8c0,3.9,1.3,7.2,4,9.9
			c2.6,2.7,5.8,4.1,9.5,4.1c3.7,0,7-1.3,9.7-4C325.5,67.5,326.8,64.3,326.8,60.4z"/>
		<path class="st0" d="M390.2,40.7c1.1,4,0.3,6.8-2.4,8.2c-2.7,1.4-5.7,1-8.9-1.3c-1.6-2-3.3-3.5-5.2-4.5c-1.9-1-4-1.5-6.4-1.5
			c-1.6,0-2.9,0.3-4,0.8c-1,0.5-1.7,1.2-1.9,2c-0.2,0.8-0.4,1.4-0.4,1.9c0,1,0.7,2,2.2,3l17.4,6.1c3.1,1.2,5.4,3,7.1,5.6
			c1.7,2.5,2.6,5.3,2.6,8.4c0,3.5-1.1,7-3.4,10.3c-2.3,3.3-5.4,5.5-9.4,6.4c-1.5,0.1-3.1,0.3-4.6,0.5c-1.6,0.2-3.1,0.3-4.5,0.3
			c-4.7,0-9.1-0.8-13.1-2.3c-4-1.5-7.7-4.5-11-9c-1.3-3.7-0.7-6.7,2-8.9c2.6-2.2,5.9-1.6,9.9,1.6c2,2.4,4,4.2,5.8,5.4
			c1.9,1.2,3.7,1.7,5.5,1.4c3.1,0,5.1-0.3,6.1-1c1-0.7,1.8-1.8,2.2-3.4c0-0.6-0.3-1.4-1-2.2c-0.7-0.9-1.6-1.5-3-2
			c-3.5-0.9-7.2-2.3-11-4.1c-3.9-1.8-7.3-3.7-10.2-5.6c-2.7-3-4.1-6.3-4.1-10c0-5.5,1.9-9.5,5.7-12.1c3.8-2.6,7-4.1,9.7-4.6
			c2.7-0.5,5.8-0.7,9.3-0.7c4.5,0.4,8.1,1.5,10.9,3.2C384.9,34.3,387.6,37,390.2,40.7z"/>
	</g>
</g>
</svg>
